<?xml version="1.0" encoding="utf-8"?>
<!-- Generator: Adobe Illustrator 22.1.0, SVG Export Plug-In . SVG Version: 6.00 Build 0)  -->
<svg version="1.1" id="Layer_1" xmlns="http://www.w3.org/2000/svg" xmlns:xlink="http://www.w3.org/1999/xlink" x="0px" y="0px"
	 viewBox="0 0 160 156" style="enable-background:new 0 0 160 156;" xml:space="preserve">
<path d="M148.7,147.7l-36.5-44.1L138,81.4h9.9v-2.3h-25.6v2.3H134l-32.9,28.4h-1.8v-79H74.9V8.3h12.7V6h-36v2.3h9.1v35.5h-1.8
	L29.6,8.3h11.7V6H4.2v2.3h7.1l36.5,44.1L22,74.6h-9.9v2.3h25.6v-2.3H26l32.9-28.4h1.8v79h24.3v22.5H72.3v2.3h36v-2.3h-9.1v-35.5h1.8
	l29.3,35.5h-11.7v2.3h37.2v-2.3H148.7z M49.7,51.3L14.4,8.4h12.6L57.1,45L49.7,51.3z M63.1,122.9V8.4h9.4v114.5H63.1z M74.9,122.9
	V33.1h10.1v89.8H74.9z M96.8,147.5h-9.4V33h9.4V147.5z M133,147.5l-30.1-36.6l7.4-6.3l35.3,42.9H133z"/>
</svg>
