<svg version="1" xmlns="http://www.w3.org/2000/svg" width="400" height="400" viewBox="0 0 300.000000 300.000000"><path d="M23.9 30.2c-1.1 3.6-.7 3.8 5.4 3.8 6 0 6.3.1 9.2 3.8C41.3 41.3 72.1 78.6 80 88c13.7 16.2 16 19.4 14.7 20.6-1.1 1-36.2 31.1-39.9 34.2-1.2 1-4.1 1.4-9.7 1.3-7.3-.1-8.1.1-8.1 1.8 0 1 .6 2.1 1.3 2.3 2 .6 40.7.2 41.3-.5.4-.3.4-1.3.1-2.1-.4-1.1-2.7-1.4-9.3-1.5-4.8-.1-8.8-.2-9-.3-.1-.2 3-3 6.9-6.4 4-3.4 16.2-13.8 27.1-23.3 11-9.4 20.5-17.1 21.1-17.1.9 0 1.2 15.6 1.3 64.7 0 35.7.1 65.4.1 66.1.1 1 3.6 1.3 15.9 1.2 8.6-.1 17.6-.1 20 0h4.2v37h-10.5c-9.9 0-10.5.1-10.5 2 0 2 .5 2 30.3 1.8 26.1-.3 30.2-.5 30.2-1.8 0-1.2-1.6-1.6-7.6-1.8l-7.6-.3v-29.4c0-22.7.3-29.5 1.2-29.5 1.1 0 7.3 7.2 41.7 49l7.9 9.5-9.6.3c-8.7.2-9.5.4-9.5 2.2 0 1.9.9 2 31.3 2 30.6 0 31.3 0 31.3-2 0-1.8-.7-2-6.1-2h-6l-5-6.2c-2.7-3.5-6-7.4-7.2-8.8-6.1-7.2-44.7-53.9-46.3-56l-1.8-2.6 21.1-18.2 21.2-18.2h8.3c7.8 0 8.2-.1 8.2-2.3v-2.2l-21.2.1c-20.2.1-21.3.2-21.3 2 0 1.7.9 1.9 9.2 2.2l9.2.3-4.2 3.7c-2.3 2-4.4 3.9-4.7 4.2-.4.5-7.4 6.5-18.6 16-1.6 1.4-8.2 7.1-14.8 12.8-6.5 5.7-12.3 10.1-13 9.9-.8-.3-1.1-17.2-1.3-64.3-.1-35.1-.2-64.7-.2-65.7-.1-1.6-1.8-1.7-20.1-1.7h-20V34h10.5c9.8 0 10.5-.1 10.5-2 0-2-.7-2-30.4-2-28.4 0-30.4.1-30.2 1.7.2 1.5 1.5 1.8 7.8 2.1l7.5.3v29.5c0 26.1-.1 29.5-1.5 29.2-.9-.2-5.5-5-10.2-10.8-4.7-5.8-15.5-18.8-23.9-29L66.8 34.5l9.6-.3c8.8-.2 9.6-.4 9.6-2.2 0-1.9-.9-2-31-2-17.1 0-31 .1-31.1.2zM80 56.7c10.2 12.4 19.5 23.7 20.8 25.2 4.5 5.1 10.5 13.2 10.1 13.5-.2.2-2.9 2.5-5.9 5l-5.5 4.7-2-2.4c-1.1-1.3-5.8-7.1-10.5-12.8-4.6-5.7-8.7-10.6-9-10.9-.3-.3-6.8-8.2-14.5-17.5-7.6-9.4-15.9-19.4-18.3-22.3L40.8 34h10.3l10.4.1L80 56.7zm57.5 72.6v95.2l-7.8.2-7.7.2V34h15.5v95.3zM158 78.9c0 12.1.1 139.2 0 142.1v3.6h-8l-8 .1V75.3h8l8-.1v3.7zm20 91.5v95.5l-7.4-.1c-4.5-.1-7.6-.5-7.8-1.2-.4-1-.2-186.9.1-188.9 0-.4 3.5-.7 7.6-.7h7.5v95.4zm29.5 32.7c1.1 1.3 9.2 11.2 18 21.9s19.7 24 24.2 29.4c4.6 5.5 8.3 10.3 8.3 10.6 0 .4-4.3.7-9.5.7H239l-3.2-3.6c-4.9-5.4-46.3-56.1-46.6-57.1-.2-.4 2.3-2.9 5.5-5.5l5.7-4.7 2.6 2.9c1.4 1.6 3.4 4 4.5 5.4z"/></svg>